<?xml version="1.0" encoding="UTF-8"?>
<svg id="Layer_2" data-name="Layer 2" xmlns="http://www.w3.org/2000/svg" viewBox="0 0 205.96 205.96">
  <defs>
    <style>
      .cls-1 {
        fill: blue;
      }

      .cls-2 {
        fill: #fff;
      }
    </style>
  </defs>
  <g id="Layer_1-2" data-name="Layer 1">
    <rect class="cls-1" x="18.84" y="18.84" width="168.28" height="168.28" transform="translate(-23.06 30.02) rotate(-14.93)"/>
    <g>
      <g>
        <g>
          <rect class="cls-2" x="49.21" y="55.94" width="7.17" height="7.17"/>
          <rect class="cls-2" x="49.21" y="63.11" width="7.17" height="7.17"/>
          <rect class="cls-2" x="49.21" y="70.28" width="7.17" height="7.17"/>
          <rect class="cls-2" x="49.21" y="77.45" width="7.17" height="7.17"/>
          <rect class="cls-2" x="49.21" y="84.62" width="7.17" height="7.17"/>
          <rect class="cls-2" x="63.55" y="55.94" width="7.17" height="7.17"/>
          <rect class="cls-2" x="63.55" y="63.11" width="7.17" height="7.17"/>
          <rect class="cls-2" x="63.55" y="70.28" width="7.17" height="7.17"/>
          <rect class="cls-2" x="63.55" y="77.45" width="7.17" height="7.17"/>
          <rect class="cls-2" x="63.55" y="84.62" width="7.17" height="7.17"/>
          <rect class="cls-2" x="77.89" y="55.94" width="7.17" height="7.17"/>
          <rect class="cls-2" x="77.89" y="63.11" width="7.17" height="7.17"/>
          <rect class="cls-2" x="77.89" y="70.28" width="7.17" height="7.17"/>
          <rect class="cls-2" x="77.89" y="77.45" width="7.17" height="7.17"/>
          <rect class="cls-2" x="77.89" y="84.62" width="7.17" height="7.17"/>
          <polygon class="cls-2" points="53.64 63.11 63.55 63.11 63.55 55.94 53.64 63.11"/>
          <polygon class="cls-2" points="67.98 63.11 77.89 63.11 77.89 55.94 67.98 63.11"/>
        </g>
        <g>
          <rect class="cls-2" x="99.4" y="55.94" width="7.17" height="7.17" transform="translate(43.45 162.51) rotate(-90)"/>
          <rect class="cls-2" x="99.4" y="84.62" width="7.17" height="7.17" transform="translate(14.78 191.18) rotate(-90)"/>
          <rect class="cls-2" x="106.56" y="55.94" width="7.17" height="7.17" transform="translate(50.62 169.68) rotate(-90)"/>
          <rect class="cls-2" x="106.56" y="84.62" width="7.17" height="7.17" transform="translate(21.94 198.35) rotate(-90)"/>
          <rect class="cls-2" x="113.73" y="55.94" width="7.17" height="7.17" transform="translate(57.79 176.85) rotate(-90)"/>
          <rect class="cls-2" x="113.73" y="84.62" width="7.17" height="7.17" transform="translate(29.11 205.52) rotate(-90)"/>
          <rect class="cls-2" x="88.64" y="63.11" width="7.17" height="7.17"/>
          <rect class="cls-2" x="88.64" y="70.28" width="7.17" height="7.17"/>
          <rect class="cls-2" x="88.64" y="77.45" width="7.17" height="7.17"/>
          <polygon class="cls-2" points="88.64 63.11 99.4 63.11 99.4 55.94 88.64 63.11"/>
          <polygon class="cls-2" points="88.64 84.62 99.4 84.62 99.4 91.79 88.64 84.62"/>
        </g>
        <g>
          <rect class="cls-2" x="124.49" y="55.94" width="7.17" height="7.17" transform="translate(68.54 187.6) rotate(-90)"/>
          <rect class="cls-2" x="131.66" y="55.94" width="7.17" height="7.17" transform="translate(75.71 194.77) rotate(-90)"/>
          <rect class="cls-2" x="138.82" y="55.94" width="7.17" height="7.17" transform="translate(82.88 201.94) rotate(-90)"/>
          <rect class="cls-2" x="124.49" y="84.62" width="7.17" height="7.17" transform="translate(39.87 216.28) rotate(-90)"/>
          <rect class="cls-2" x="131.66" y="84.62" width="7.17" height="7.17" transform="translate(47.04 223.44) rotate(-90)"/>
          <rect class="cls-2" x="138.82" y="84.62" width="7.17" height="7.17" transform="translate(54.21 230.61) rotate(-90)"/>
          <rect class="cls-2" x="124.49" y="63.11" width="7.17" height="7.17"/>
          <rect class="cls-2" x="124.49" y="70.28" width="7.17" height="7.17"/>
          <rect class="cls-2" x="124.49" y="77.45" width="7.17" height="7.17"/>
          <rect class="cls-2" x="124.49" y="91.79" width="7.17" height="7.17"/>
          <rect class="cls-2" x="124.49" y="98.96" width="7.17" height="7.17"/>
          <rect class="cls-2" x="149.58" y="63.11" width="7.17" height="7.17"/>
          <rect class="cls-2" x="149.58" y="70.28" width="7.17" height="7.17"/>
          <rect class="cls-2" x="149.58" y="77.45" width="7.17" height="7.17"/>
          <polygon class="cls-2" points="156.75 63.11 145.99 63.11 145.99 55.94 156.75 63.11"/>
          <polygon class="cls-2" points="156.75 84.62 145.99 84.62 145.99 91.79 156.75 84.62"/>
        </g>
      </g>
      <g>
        <g>
          <rect class="cls-2" x="145.99" y="121.34" width="7.17" height="7.17"/>
          <rect class="cls-2" x="145.99" y="128.51" width="7.17" height="7.17"/>
          <rect class="cls-2" x="120.9" y="121.34" width="7.17" height="7.17"/>
          <rect class="cls-2" x="120.9" y="128.51" width="7.17" height="7.17"/>
          <rect class="cls-2" x="145.99" y="114.17" width="7.17" height="7.17" transform="translate(267.33 -31.82) rotate(90)"/>
          <rect class="cls-2" x="137.03" y="112.38" width="7.17" height="10.75" transform="translate(258.37 -22.86) rotate(90)"/>
          <rect class="cls-2" x="145.99" y="135.68" width="7.17" height="7.17" transform="translate(288.84 -10.32) rotate(90)"/>
          <rect class="cls-2" x="128.07" y="114.17" width="7.17" height="7.17" transform="translate(249.41 -13.9) rotate(90)"/>
          <rect class="cls-2" x="120.9" y="135.68" width="7.17" height="7.17" transform="translate(263.75 14.78) rotate(90)"/>
          <rect class="cls-2" x="145.99" y="142.85" width="7.17" height="7.17" transform="translate(296.01 -3.15) rotate(90)"/>
          <rect class="cls-2" x="120.9" y="142.85" width="7.17" height="7.17" transform="translate(270.92 21.94) rotate(90)"/>
          <polygon class="cls-2" points="131.66 121.34 120.9 121.34 120.9 114.17 131.66 121.34"/>
        </g>
        <g>
          <polygon class="cls-2" points="85.06 142.85 95.81 142.85 95.81 150.02 85.06 142.85"/>
          <rect class="cls-2" x="85.06" y="135.68" width="7.17" height="7.17" transform="translate(177.28 278.53) rotate(180)"/>
          <rect class="cls-2" x="85.06" y="128.51" width="7.17" height="7.17" transform="translate(177.28 264.19) rotate(180)"/>
          <rect class="cls-2" x="110.15" y="135.68" width="7.17" height="7.17" transform="translate(227.47 278.53) rotate(180)"/>
          <rect class="cls-2" x="110.15" y="128.51" width="7.17" height="7.17" transform="translate(227.47 264.19) rotate(180)"/>
          <polygon class="cls-2" points="99.4 142.85 99.4 150.02 92.23 146.43 92.23 142.85 99.4 142.85"/>
          <rect class="cls-2" x="97.6" y="141.05" width="7.17" height="10.75" transform="translate(-45.24 247.62) rotate(-90)"/>
          <rect class="cls-2" x="85.06" y="121.34" width="7.17" height="7.17" transform="translate(-36.28 213.57) rotate(-90)"/>
          <polygon class="cls-2" points="110.15 142.85 110.15 146.43 102.98 150.02 102.98 142.85 110.15 142.85"/>
          <rect class="cls-2" x="110.15" y="114.17" width="7.17" height="7.17" transform="translate(-4.02 231.49) rotate(-90)"/>
          <rect class="cls-2" x="85.06" y="114.17" width="7.17" height="7.17" transform="translate(-29.11 206.4) rotate(-90)"/>
          <rect class="cls-2" x="110.15" y="121.34" width="7.17" height="7.17" transform="translate(-11.19 238.66) rotate(-90)"/>
          <polygon class="cls-2" points="117.32 142.85 106.56 142.85 106.56 150.02 117.32 142.85"/>
        </g>
        <g>
          <rect class="cls-2" x="59.97" y="114.17" width="7.17" height="7.17" transform="translate(-54.21 181.31) rotate(-90)"/>
          <rect class="cls-2" x="67.13" y="114.17" width="7.17" height="7.17" transform="translate(-47.04 188.48) rotate(-90)"/>
          <rect class="cls-2" x="74.3" y="114.17" width="7.17" height="7.17" transform="translate(-39.87 195.64) rotate(-90)"/>
          <rect class="cls-2" x="52.8" y="142.85" width="7.17" height="7.17" transform="translate(-90.05 202.81) rotate(-90)"/>
          <rect class="cls-2" x="52.8" y="121.34" width="7.17" height="7.17"/>
          <rect class="cls-2" x="52.8" y="128.51" width="7.17" height="7.17"/>
          <rect class="cls-2" x="52.8" y="135.68" width="7.17" height="7.17"/>
          <polygon class="cls-2" points="63.55 121.34 52.8 121.34 52.8 114.17 63.55 121.34"/>
        </g>
      </g>
    </g>
  </g>
</svg>